<svg width="512" height="512" viewBox="0 0 512 512" fill="none" xmlns="http://www.w3.org/2000/svg">
  <defs>
    <linearGradient id="bg" x1="64" y1="48" x2="448" y2="464" gradientUnits="userSpaceOnUse">
      <stop offset="0" stop-color="#F8FBFF"/>
      <stop offset="0.55" stop-color="#EEF5FF"/>
      <stop offset="1" stop-color="#F4F8FC"/>
    </linearGradient>
    <linearGradient id="ink" x1="146" y1="108" x2="304" y2="372" gradientUnits="userSpaceOnUse">
      <stop offset="0" stop-color="#2563EB"/>
      <stop offset="0.6" stop-color="#0F4C81"/>
      <stop offset="1" stop-color="#0B132B"/>
    </linearGradient>
    <linearGradient id="bar" x1="170" y1="252" x2="332" y2="252" gradientUnits="userSpaceOnUse">
      <stop offset="0" stop-color="#14B8A6"/>
      <stop offset="1" stop-color="#38BDF8"/>
    </linearGradient>
    <linearGradient id="thread" x1="132" y1="360" x2="394" y2="184" gradientUnits="userSpaceOnUse">
      <stop offset="0" stop-color="#F59E0B"/>
      <stop offset="0.55" stop-color="#F97316"/>
      <stop offset="1" stop-color="#FB7185"/>
    </linearGradient>
  </defs>
  <rect x="56" y="50" width="400" height="412" rx="68" fill="url(#bg)"/>
  <path d="M152 348L256 140L364 348" stroke="url(#ink)" stroke-width="28" stroke-linecap="round" stroke-linejoin="round"/>
  <path d="M193 268H319" stroke="url(#bar)" stroke-width="24" stroke-linecap="round"/>
  <path d="M140 352C179 327 214 312 246 302C288 288 326 265 360 235C378 219 392 206 412 197" stroke="url(#thread)" stroke-width="12" stroke-linecap="round"/>
  <circle cx="140" cy="352" r="10" fill="#F59E0B"/>
  <circle cx="246" cy="302" r="7.5" fill="#FB7185"/>
  <circle cx="360" cy="235" r="8.5" fill="#F97316"/>
  <circle cx="412" cy="197" r="10" fill="#38BDF8"/>
  <circle cx="356" cy="284" r="34" stroke="#C8D9EE" stroke-width="7"/>
  <circle cx="356" cy="284" r="18" stroke="#9BB7D7" stroke-width="5"/>
  <circle cx="356" cy="284" r="6.5" fill="#0F4C81"/>
</svg>
