<svg width="1400" height="780" viewBox="0 0 1400 780" fill="none" xmlns="http://www.w3.org/2000/svg">
  <defs>
    <linearGradient id="bg" x1="80" y1="60" x2="1320" y2="720" gradientUnits="userSpaceOnUse">
      <stop offset="0" stop-color="#F8FBFF"/>
      <stop offset="1" stop-color="#F8FAFC"/>
    </linearGradient>
  </defs>
  <rect x="40" y="40" width="1320" height="700" rx="32" fill="url(#bg)"/>
  <text x="90" y="105" fill="#0B132B" font-family="Helvetica, Arial, sans-serif" font-size="34" font-weight="700">Representative result panels</text>
  <text x="90" y="138" fill="#475569" font-family="Helvetica, Arial, sans-serif" font-size="18">Conference-style preview of the two most important outputs: feature-space embedding and final phylogeny.</text>

  <rect x="86" y="184" width="584" height="488" rx="28" fill="#FFFFFF" stroke="#E2E8F0" stroke-width="2"/>
  <text x="118" y="228" fill="#0F172A" font-family="Helvetica, Arial, sans-serif" font-size="24" font-weight="700">A. TPS feature-space embedding</text>
  <rect x="118" y="262" width="474" height="330" rx="18" fill="#F8FAFC" stroke="#E2E8F0"/>
  <line x1="154" y1="544" x2="558" y2="544" stroke="#475569" stroke-width="2"/>
  <line x1="154" y1="544" x2="154" y2="300" stroke="#475569" stroke-width="2"/>
  <circle cx="242" cy="434" r="10" fill="#EE6A50" fill-opacity="0.65"/>
  <circle cx="270" cy="406" r="10" fill="#EE6A50" fill-opacity="0.65"/>
  <circle cx="298" cy="454" r="10" fill="#EE6A50" fill-opacity="0.65"/>
  <circle cx="414" cy="356" r="10" fill="#7B68EE" fill-opacity="0.65"/>
  <circle cx="448" cy="330" r="10" fill="#7B68EE" fill-opacity="0.65"/>
  <circle cx="480" cy="376" r="10" fill="#7B68EE" fill-opacity="0.65"/>
  <circle cx="356" cy="466" r="12" fill="#374151"/>
  <circle cx="386" cy="438" r="12" fill="#374151"/>
  <circle cx="520" cy="470" r="12" fill="#374151"/>
  <text x="118" y="627" fill="#475569" font-family="Helvetica, Arial, sans-serif" font-size="17">Candidates are overlaid on top of reference clades to support fast visual screening.</text>

  <rect x="726" y="184" width="588" height="488" rx="28" fill="#FFFFFF" stroke="#E2E8F0" stroke-width="2"/>
  <text x="758" y="228" fill="#0F172A" font-family="Helvetica, Arial, sans-serif" font-size="24" font-weight="700">B. Alignment-driven phylogeny</text>
  <rect x="758" y="262" width="492" height="330" rx="18" fill="#F8FAFC" stroke="#E2E8F0"/>
  <path d="M820 340H872V300H934V360H1002V322H1066V390H1142" stroke="#1D4ED8" stroke-width="4" stroke-linecap="round" stroke-linejoin="round"/>
  <path d="M872 300V470M934 360V430M1002 322V402M1066 390V520" stroke="#1D4ED8" stroke-width="4" stroke-linecap="round"/>
  <circle cx="1142" cy="390" r="7" fill="#F59E0B"/>
  <circle cx="1066" cy="520" r="7" fill="#10B981"/>
  <circle cx="1002" cy="402" r="7" fill="#10B981"/>
  <circle cx="934" cy="430" r="7" fill="#10B981"/>
  <circle cx="872" cy="470" r="7" fill="#10B981"/>
  <text x="758" y="627" fill="#475569" font-family="Helvetica, Arial, sans-serif" font-size="17">Filtered candidates are merged with the tree/ references for MAFFT alignment and IQ-TREE reconstruction.</text>

  <rect x="1086" y="86" width="228" height="62" rx="18" fill="#FFFFFF" stroke="#E2E8F0" stroke-width="2"/>
  <text x="1124" y="124" fill="#0F172A" font-family="Helvetica, Arial, sans-serif" font-size="17" font-weight="700">Outputs: SVG + TSV + NWK</text>
</svg>
